<svg width="64" height="64" viewBox="0 0 64 64" fill="none" xmlns="http://www.w3.org/2000/svg">
    <path fill-rule="evenodd" clip-rule="evenodd"
        d="M7.76544 7.76544C10.1194 5.41152 13.9359 5.41152 16.2898 7.76544L32.1218 23.5974L47.7106 8.00878C50.0644 5.65484 53.881 5.65484 56.2348 8.00878C58.5882 10.3628 58.5886 14.1794 56.2348 16.5331L40.6462 32.1218L55.9916 47.4672C58.3448 49.8212 58.3452 53.6378 55.9916 55.9916C53.6378 58.3452 49.8212 58.3448 47.4672 55.9916L32.1218 40.6462L16.5331 56.2348C14.1794 58.5886 10.3628 58.5882 8.00878 56.2348C5.65484 53.881 5.65484 50.0644 8.00878 47.7106L23.5974 32.1218L7.76544 16.2898C5.41152 13.9359 5.41152 10.1194 7.76544 7.76544Z"
        fill="currentColor" />
</svg>