<svg width="64" height="64" viewBox="0 0 64 64" fill="none" xmlns="http://www.w3.org/2000/svg">
    <path
        d="M21.3333 8H20.8C16.3196 8 14.0794 8 12.3681 8.87195C10.8628 9.63893 9.63893 10.8628 8.87195 12.3681C8 14.0794 8 16.3196 8 20.8V21.3333M21.3333 56H20.8C16.3196 56 14.0794 56 12.3681 55.128C10.8628 54.3611 9.63893 53.1373 8.87195 51.632C8 49.9205 8 47.6805 8 43.2V42.6667M56 21.3333V20.8C56 16.3196 56 14.0794 55.128 12.3681C54.3611 10.8628 53.1373 9.63893 51.632 8.87195C49.9205 8 47.6805 8 43.2 8H42.6667M56 42.6667V43.2C56 47.6805 56 49.9205 55.128 51.632C54.3611 53.1373 53.1373 54.3611 51.632 55.128C49.9205 56 47.6805 56 43.2 56H42.6667"
        stroke="currentColor" stroke-width="6" stroke-linecap="round" stroke-linejoin="round" />
</svg>