<svg width="64" height="64" viewBox="0 0 64 64" fill="none" xmlns="http://www.w3.org/2000/svg">
    <path fill-rule="evenodd" clip-rule="evenodd"
        d="M32 26.6667C33.0548 26.6667 34.086 26.9795 34.963 27.5655C35.8401 28.1515 36.5237 28.9845 36.9274 29.959C37.331 30.9336 37.4366 32.0059 37.2309 33.0405C37.0251 34.075 36.5171 35.0254 35.7712 35.7712C35.0254 36.5171 34.075 37.0251 33.0405 37.2309C32.0059 37.4366 30.9336 37.331 29.959 36.9274C28.9845 36.5237 28.1515 35.8401 27.5655 34.963C26.9795 34.086 26.6667 33.0548 26.6667 32C26.6667 30.5855 27.2286 29.229 28.2288 28.2288C29.229 27.2286 30.5855 26.6667 32 26.6667ZM10.6667 37.3333C11.7215 37.3333 12.7526 37.0205 13.6297 36.4345C14.5068 35.8485 15.1904 35.0155 15.594 34.041C15.9977 33.0664 16.1033 31.9941 15.8975 30.9595C15.6917 29.925 15.1838 28.9746 14.4379 28.2288C13.692 27.4829 12.7417 26.9749 11.7071 26.7691C10.6726 26.5634 9.60022 26.669 8.62568 27.0726C7.65114 27.4763 6.81819 28.1599 6.23216 29.037C5.64612 29.914 5.33333 30.9452 5.33333 32C5.33333 33.4145 5.89523 34.771 6.89543 35.7712C7.89562 36.7714 9.25217 37.3333 10.6667 37.3333ZM53.3333 26.6667C52.2785 26.6667 51.2473 26.9795 50.3703 27.5655C49.4932 28.1515 48.8096 28.9845 48.406 29.959C48.0023 30.9336 47.8967 32.0059 48.1025 33.0405C48.3083 34.075 48.8162 35.0254 49.5621 35.7712C50.308 36.5171 51.2583 37.0251 52.2928 37.2309C53.3274 37.4366 54.3998 37.331 55.3743 36.9274C56.3488 36.5237 57.1818 35.8401 57.7678 34.963C58.3539 34.086 58.6667 33.0548 58.6667 32C58.6667 30.5855 58.1048 29.229 57.1046 28.2288C56.1044 27.2286 54.7478 26.6667 53.3333 26.6667Z"
        fill="currentColor" />
</svg>