<svg width="64" height="64" viewBox="0 0 64 64" fill="none" xmlns="http://www.w3.org/2000/svg">
    <path fill-rule="evenodd" clip-rule="evenodd"
        d="M7.14133 30.4587C6.52209 31.0777 6.03087 31.8128 5.69573 32.6217C5.36058 33.4307 5.18809 34.2977 5.18809 35.1733C5.18809 36.049 5.36058 36.916 5.69573 37.725C6.03087 38.5339 6.52209 39.2689 7.14133 39.888L24.112 56.8587C24.7311 57.4779 25.4661 57.9691 26.275 58.3043C27.084 58.6394 27.951 58.8119 28.8267 58.8119C29.7023 58.8119 30.5693 58.6394 31.3783 58.3043C32.1872 57.9691 32.9223 57.4779 33.5413 56.8587L54.048 36.352C54.667 35.7328 55.158 34.9978 55.4929 34.1888C55.8279 33.3799 56.0002 32.5129 56 31.6373V12C56 10.9391 55.5786 9.92172 54.8284 9.17157C54.0783 8.42143 53.0609 8 52 8H32.36C31.4845 7.99984 30.6175 8.17214 29.8085 8.50706C28.9996 8.84199 28.2645 9.33298 27.6453 9.952L7.14133 30.4587ZM39.968 18.6667C37.008 18.6667 34.6667 20.8853 34.6667 23.968C34.6667 27.0533 37.008 29.3333 39.968 29.3333C42.9893 29.3333 45.3333 27.0533 45.3333 23.968C45.3333 20.8853 42.9867 18.6667 39.968 18.6667Z"
        fill="currentColor" />
</svg>