<svg width="0" height="0" class="hidden">
  <!-- add -->
  <symbol version="1.1" xmlns="http://www.w3.org/2000/svg"
    xmlns:xlink="http://www.w3.org/1999/xlink" xmlnsSketch="http://www.bohemiancoding.com/sketch/ns"
    viewBox="0 0 32 32" id="add">
    <g id="Page-1" stroke="none" stroke-width="1" fill="#000000" fill-rule="evenodd"
      sketchType="MSPage">
      <g id="Icon-Set-Filled" sketchType="MSLayerGroup"
        transform="translate(-362.000000, -1037.000000)" fill="currentColor">
        <path
          d="M390,1049 L382,1049 L382,1041 C382,1038.79 380.209,1037 378,1037 C375.791,1037 374,1038.79 374,1041 L374,1049 L366,1049 C363.791,1049 362,1050.79 362,1053 C362,1055.21 363.791,1057 366,1057 L374,1057 L374,1065 C374,1067.21 375.791,1069 378,1069 C380.209,1069 382,1067.21 382,1065 L382,1057 L390,1057 C392.209,1057 394,1055.21 394,1053 C394,1050.79 392.209,1049 390,1049"
          id="plus" sketchType="MSShapeGroup"></path>
      </g>
    </g>
  </symbol>

  <!-- option -->
  <symbol fill="currentColor" xmlns="http://www.w3.org/2000/svg" viewBox="0 0 24 24"
    id="option">
    <path
      d="M12,10a2,2,0,1,1-2,2A2,2,0,0,1,12,10ZM4,14a2,2,0,1,0-2-2A2,2,0,0,0,4,14Zm16-4a2,2,0,1,0,2,2A2,2,0,0,0,20,10Z"></path>
  </symbol>

  <!-- delete -->
  <svg width="0" height="0" class="hidden">
    <symbol fill="none" xmlns="http://www.w3.org/2000/svg" viewBox="-4 -4 32 32"
      id="delete">
      <path d="M10 12V17" stroke="currentColor" stroke-width="2" stroke-linecap="round"
        stroke-linejoin="round"></path>
      <path d="M14 12V17" stroke="currentColor" stroke-width="2"
        stroke-linecap="round"
        stroke-linejoin="round"></path>
      <!-- 
      <path d="M4 7H20" stroke="currentColor" stroke-width="2"
        stroke-linecap="round"
        stroke-linejoin="round"></path> -->
      <path
        d="M6 10V18C6 19.6569 7.34315 21 9 21H15C16.6569 21 18 19.6569 18 18V10"
        stroke="currentColor" stroke-width="2" stroke-linecap="round" stroke-linejoin="round"></path>
      <!-- <path
        d="M9 5C9 3.89543 9.89543 3 11 3H13C14.1046 3 15 3.89543 15 5V7H9V5Z"
        stroke="currentColor"
        stroke-width="2" stroke-linecap="round" stroke-linejoin="round"></path> -->
    </symbol>
  </svg>

  <!-- delete-cap -->
  <svg width="0" height="0" class="hidden">
    <symbol fill="none" xmlns="http://www.w3.org/2000/svg" viewBox="-4 -4 32 32"
      id="delete-cap">
      <path d="M4 7H20" stroke="currentColor" stroke-width="2"
        stroke-linecap="round"
        stroke-linejoin="round"></path>
      <path
        d="M9 5C9 3.89543 9.89543 3 11 3H13C14.1046 3 15 3.89543 15 5V7H9V5Z"
        stroke="currentColor"
        stroke-width="2" stroke-linecap="round" stroke-linejoin="round"></path>
    </symbol>
  </svg>

  <!-- cancel -->
  <symbol viewBox="0 0 32 32" fill="none" xmlns="http://www.w3.org/2000/svg"
    id="cancel">
    <path
      d="M3.88272 3.88272C5.05969 2.70576 6.96793 2.70576 8.14489 3.88272L16.0609 11.7987L23.8553 4.00439C25.0322 2.82742 26.9405 2.82742 28.1174 4.00439C29.2941 5.18138 29.2943 7.0897 28.1174 8.26656L20.3231 16.0609L27.9958 23.7336C29.1724 24.9106 29.1726 26.8189 27.9958 27.9958C26.8189 29.1726 24.9106 29.1724 23.7336 27.9958L16.0609 20.3231L8.26656 28.1174C7.0897 29.2943 5.18138 29.2941 4.00439 28.1174C2.82742 26.9405 2.82742 25.0322 4.00439 23.8553L11.7987 16.0609L3.88272 8.14489C2.70576 6.96793 2.70576 5.05969 3.88272 3.88272Z"
      fill="currentColor" />
  </symbol>

  <!-- tag -->
  <symbol fill="none" xmlns="http://www.w3.org/2000/svg" viewBox="0 0 24 24" id="tag">
    <path fill-rule="evenodd" clip-rule="evenodd"
      d="M2.678 11.422a2.5 2.5 0 0 0 0 3.536l6.364 6.364a2.5 2.5 0 0 0 3.536 0l7.69-7.69A2.5 2.5 0 0 0 21 11.864V4.5A1.5 1.5 0 0 0 19.5 3h-7.365a2.5 2.5 0 0 0-1.768.732l-7.69 7.69zM14.988 7C13.878 7 13 7.832 13 8.988c0 1.157.878 2.012 1.988 2.012C16.121 11 17 10.145 17 8.988 17 7.832 16.12 7 14.988 7z"
      fill="currentColor"></path>
  </symbol>
</svg>