<svg width="0" height="0" class="hidden">
  <!-- add -->
  <symbol version="1.1" xmlns="http://www.w3.org/2000/svg"
    xmlns:xlink="http://www.w3.org/1999/xlink" xmlnsSketch="http://www.bohemiancoding.com/sketch/ns"
    viewBox="0 0 32 32" id="add">
    <g id="Page-1" stroke="none" stroke-width="1" fill="#000000" fill-rule="evenodd"
      sketchType="MSPage">
      <g id="Icon-Set-Filled" sketchType="MSLayerGroup"
        transform="translate(-362.000000, -1037.000000)" fill="currentColor">
        <path
          d="M390,1049 L382,1049 L382,1041 C382,1038.79 380.209,1037 378,1037 C375.791,1037 374,1038.79 374,1041 L374,1049 L366,1049 C363.791,1049 362,1050.79 362,1053 C362,1055.21 363.791,1057 366,1057 L374,1057 L374,1065 C374,1067.21 375.791,1069 378,1069 C380.209,1069 382,1067.21 382,1065 L382,1057 L390,1057 C392.209,1057 394,1055.21 394,1053 C394,1050.79 392.209,1049 390,1049"
          id="plus" sketchType="MSShapeGroup"></path>
      </g>
    </g>
  </symbol>

  <!-- option -->
  <symbol fill="currentColor" xmlns="http://www.w3.org/2000/svg" viewBox="0 0 24 24"
    id="option">
    <path
      d="M12,10a2,2,0,1,1-2,2A2,2,0,0,1,12,10ZM4,14a2,2,0,1,0-2-2A2,2,0,0,0,4,14Zm16-4a2,2,0,1,0,2,2A2,2,0,0,0,20,10Z"></path>
  </symbol>

  <!-- delete -->
  <svg width="0" height="0" class="hidden">
    <symbol fill="none" xmlns="http://www.w3.org/2000/svg" viewBox="-4 -4 32 32"
      id="delete">
      <path d="M10 12V17" stroke="currentColor" stroke-width="2" stroke-linecap="round"
        stroke-linejoin="round"></path>
      <path d="M14 12V17" stroke="currentColor" stroke-width="2"
        stroke-linecap="round"
        stroke-linejoin="round"></path>
      <!-- 
      <path d="M4 7H20" stroke="currentColor" stroke-width="2"
        stroke-linecap="round"
        stroke-linejoin="round"></path> -->
      <path
        d="M6 10V18C6 19.6569 7.34315 21 9 21H15C16.6569 21 18 19.6569 18 18V10"
        stroke="currentColor" stroke-width="2" stroke-linecap="round" stroke-linejoin="round"></path>
      <!-- <path
        d="M9 5C9 3.89543 9.89543 3 11 3H13C14.1046 3 15 3.89543 15 5V7H9V5Z"
        stroke="currentColor"
        stroke-width="2" stroke-linecap="round" stroke-linejoin="round"></path> -->
    </symbol>
  </svg>

  <!-- delete-cap -->
  <svg width="0" height="0" class="hidden">
    <symbol fill="none" xmlns="http://www.w3.org/2000/svg" viewBox="-4 -4 32 32"
      id="delete-cap">
      <path d="M4 7H20" stroke="currentColor" stroke-width="2"
        stroke-linecap="round"
        stroke-linejoin="round"></path>
      <path
        d="M9 5C9 3.89543 9.89543 3 11 3H13C14.1046 3 15 3.89543 15 5V7H9V5Z"
        stroke="currentColor"
        stroke-width="2" stroke-linecap="round" stroke-linejoin="round"></path>
    </symbol>
  </svg>

  <!-- cancel -->
  <svg width="32" height="32" viewBox="0 0 32 32" fill="none" id="cancel"
    xmlns="http://www.w3.org/2000/svg">
    <path
      d="M4.00032 4.00032C5.17177 2.82887 7.07106 2.82887 8.24251 4.00032L16.1214 11.8792L23.8792 4.12141C25.0507 2.94997 26.95 2.94997 28.1214 4.12141C29.2925 5.29289 29.2928 7.19226 28.1214 8.3636L20.3636 16.1214L28.0003 23.7581C29.1714 24.9296 29.1717 26.829 28.0003 28.0003C26.829 29.1717 24.9296 29.1714 23.7581 28.0003L16.1214 20.3636L8.3636 28.1214C7.19226 29.2928 5.29289 29.2925 4.12141 28.1214C2.94997 26.95 2.94997 25.0507 4.12141 23.8792L11.8792 16.1214L4.00032 8.24251C2.82887 7.07106 2.82887 5.17177 4.00032 4.00032Z"
      fill="currentColor" />
  </svg>
</svg>