<svg width="32" height="32" viewBox="0 0 32 32" fill="none" xmlns="http://www.w3.org/2000/svg">
  <path
    d="M14 12.5858C14 13.4767 12.9229 13.9229 12.2929 13.2929L2.70711 3.7071C2.07714 3.07714 2.52331 1.99999 3.41421 1.99999L13 1.99999C13.5523 1.99999 14 2.44771 14 2.99999L14 12.5858Z"
    fill="currentColor" />
  <path
    d="M18 19.4142C18 18.5233 19.0771 18.0771 19.7071 18.7071L29.2929 28.2929C29.9229 28.9229 29.4767 30 28.5858 30L19 30C18.4477 30 18 29.5523 18 29L18 19.4142Z"
    fill="currentColor" />
  <path
    d="M18 3.2958C18 2.68718 18.5407 2.21725 19.134 2.35293C25.3571 3.77603 30 9.34547 30 16C30 22.2516 25.9023 27.5455 20.2464 29.3436C19.0863 29.7124 18 28.7682 18 27.551L18 23.748C21.4505 22.86 24 19.7277 24 16C24 12.5443 21.809 9.60033 18.7403 8.48157C18.3116 8.32528 18 7.93303 18 7.47674L18 3.2958Z"
    fill="currentColor" />
  <path
    d="M2 16C2 9.74842 6.09767 4.45449 11.7536 2.65637C12.9137 2.28757 14 3.23178 14 4.44903L14 8.25195C10.5495 9.14003 8 12.2723 8 16C8 19.4557 10.191 22.3997 13.2597 23.5184C13.6884 23.6747 14 24.067 14 24.5233L14 28.7042C14 29.3128 13.4593 29.7828 12.866 29.6471C6.64293 28.224 2 22.6545 2 16Z"
    fill="currentColor" />
</svg>